<svg xmlns="http://www.w3.org/2000/svg" viewBox="0 0 256 160" width="256" height="160"><g stroke="#705c48" stroke-width="2" stroke-linejoin="round"><path d="M90 80l7 49h60l10-49" fill="#c59674"/><path d="M103 90l4 32M121 90l1 32M140 90l-3 32M156 90l-5 32" stroke="#f1d6ae" stroke-width="3"/><path d="M84 77q-11-19 10-27-5-23 18-25 16-16 32 1 24-3 25 22 23 6 15 28-19 17-37 6-20 18-35 1-16 10-28-6" fill="#e5a7a9"/><path d="M102 42q10-15 24-9" stroke="#ffe3cf" stroke-width="6" fill="none"/><circle cx="145" cy="19" r="10" fill="#a9585b"/><path d="M145 10q-4-14 11-17" stroke="#798252" stroke-width="3" fill="none"/></g></svg>
